<?xml version="1.0" standalone="no"?>
<!DOCTYPE svg PUBLIC "-//W3C//DTD SVG 20010904//EN"
 "http://www.w3.org/TR/2001/REC-SVG-20010904/DTD/svg10.dtd">
<svg version="1.0" xmlns="http://www.w3.org/2000/svg"
 width="1254.000000pt" height="1254.000000pt" viewBox="0 0 1254.000000 1254.000000"
 preserveAspectRatio="xMidYMid meet">

<g transform="translate(0.000000,1254.000000) scale(0.100000,-0.100000)"
fill="#000000" stroke="none">
<path d="M0 6270 l0 -6270 6270 0 6270 0 0 6270 0 6270 -6270 0 -6270 0 0
-6270z m3275 6250 c-11 -5 -42 -8 -70 -8 l-50 1 55 7 c79 10 88 10 65 0z m98
3 c-13 -2 -35 -2 -50 0 -16 2 -5 4 22 4 28 0 40 -2 28 -4z m5840 0 c-13 -2
-33 -2 -45 0 -13 2 -3 4 22 4 25 0 35 -2 23 -4z m114 -9 c-3 -3 -12 -4 -19 -1
-8 3 -5 6 6 6 11 1 17 -2 13 -5z m-6210 -10 c-3 -3 -12 -4 -19 -1 -8 3 -5 6 6
6 11 1 17 -2 13 -5z m-104 -11 c-7 -2 -21 -2 -30 0 -10 3 -4 5 12 5 17 0 24
-2 18 -5z m6550 0 c-7 -2 -19 -2 -25 0 -7 3 -2 5 12 5 14 0 19 -2 13 -5z
m-6610 -10 c-7 -2 -19 -2 -25 0 -7 3 -2 5 12 5 14 0 19 -2 13 -5z m-96 -9 c-3
-3 -12 -4 -19 -1 -8 3 -5 6 6 6 11 1 17 -2 13 -5z m-284 -61 c-7 -2 -19 -2
-25 0 -7 3 -2 5 12 5 14 0 19 -2 13 -5z m-173 -43 c-8 -5 -22 -9 -30 -9 -10 0
-8 3 5 9 27 12 43 12 25 0z m7789 -6 c10 -9 -35 -3 -49 6 -11 8 -7 9 15 4 17
-4 32 -8 34 -10z m-7849 -9 c0 -2 -25 -12 -55 -20 -30 -9 -57 -21 -60 -26 -8
-12 -25 -12 -25 0 0 5 26 18 58 29 60 21 82 25 82 17z m-165 -58 c-26 -16 -95
-40 -101 -34 -5 4 93 45 111 46 5 1 1 -5 -10 -12z m8225 -6 c0 -13 -29 -8 -34
5 -3 7 2 10 15 7 10 -3 19 -9 19 -12z m-8360 -46 c-14 -8 -29 -14 -35 -14 -5
0 1 6 15 14 14 8 30 14 35 14 6 0 -1 -6 -15 -14z m-480 -240 c0 -2 -10 -9 -22
-15 -22 -11 -22 -10 -4 4 21 17 26 19 26 11z m9570 -96 c0 -6 3 -8 8 -5 4 2
21 -8 38 -22 16 -15 24 -23 17 -19 -7 5 -17 6 -23 2 -6 -4 -9 -1 -8 7 2 7 -5
12 -14 12 -10 -1 -20 7 -24 18 -3 11 -11 17 -18 15 -7 -3 -13 1 -13 8 0 10 5
11 19 4 10 -5 18 -14 18 -20z m-9710 8 c0 -2 -41 -34 -90 -71 -53 -39 -88 -72
-84 -78 5 -7 2 -8 -5 -3 -8 4 -25 -4 -44 -21 -17 -16 -25 -21 -17 -10 14 17
227 186 236 186 2 0 4 -2 4 -3z m6070 -47 c0 -5 -4 -10 -10 -10 -5 0 -10 5
-10 10 0 6 5 10 10 10 6 0 10 -4 10 -10z m-205 -40 c3 -5 -1 -10 -10 -10 -9 0
-13 5 -10 10 3 6 8 10 10 10 2 0 7 -4 10 -10z m-1171 -37 c-5 -5 -12 -12 -16
-18 -4 -6 -8 -2 -8 8 0 9 7 17 17 17 9 0 12 -3 7 -7z m713 -15 c-3 -8 -6 -5
-6 6 -1 11 2 17 5 13 3 -3 4 -12 1 -19z m663 11 c0 -5 -4 -8 -9 -5 -5 4 -11 0
-14 -6 -2 -7 -8 -9 -13 -5 -5 4 -2 12 6 17 20 13 30 12 30 -1z m-1192 -79 c13
-11 22 -24 20 -28 -1 -5 -16 4 -33 19 -34 32 -23 39 13 9z m-198 -25 c0 -8 -7
-15 -16 -15 -14 0 -14 3 -4 15 7 8 14 15 16 15 2 0 4 -7 4 -15z m120 5 c0 -5
-11 -20 -25 -34 -17 -17 -25 -20 -25 -11 0 8 5 15 10 15 14 0 12 27 -2 33 -7
3 -1 6 15 6 15 1 27 -3 27 -9z m619 -7 c-7 -10 -15 -20 -16 -22 -2 -2 -3 5 -3
17 0 14 6 22 16 22 14 0 15 -3 3 -17z m-329 -13 c0 -5 -4 -10 -10 -10 -5 0
-10 5 -10 10 0 6 5 10 10 10 6 0 10 -4 10 -10z m-246 -12 c-4 -6 1 -17 11 -25
18 -13 18 -13 -1 -27 -10 -8 -21 -12 -24 -10 -2 3 2 9 9 13 7 5 10 14 7 20 -4
6 -12 9 -17 6 -13 -9 -11 9 3 23 15 15 21 15 12 0z m133 -20 c-3 -8 -6 -5 -6
6 -1 11 2 17 5 13 3 -3 4 -12 1 -19z m-257 -20 c0 -6 -7 -5 -15 2 -8 7 -15 17
-15 22 0 6 7 5 15 -2 8 -7 15 -17 15 -22z m300 22 c0 -5 -4 -10 -10 -10 -5 0
-10 5 -10 10 0 6 5 10 10 10 6 0 10 -4 10 -10z m114 -22 c-6 -9 -34 1 -34 11
0 4 3 10 6 14 8 7 33 -16 28 -25z m-74 3 c0 -6 -4 -13 -10 -16 -5 -3 -10 1
-10 9 0 9 5 16 10 16 6 0 10 -4 10 -9z m-434 -63 c0 -24 -1 -36 -3 -26 -5 19
-36 34 -41 19 -2 -6 -12 -6 -28 1 -35 16 -30 23 18 24 23 0 43 5 46 12 6 19 7
15 8 -30z m842 24 c2 -8 -2 -10 -15 -5 -16 6 -16 5 -4 -10 18 -22 11 -29 -12
-12 -11 7 -15 19 -11 29 7 19 35 18 42 -2z m-1478 -12 c0 -5 -4 -10 -10 -10
-5 0 -10 5 -10 10 0 6 5 10 10 10 6 0 10 -4 10 -10z m1090 -1 c0 -5 5 -7 12
-3 7 4 8 3 4 -4 -4 -6 -13 -9 -21 -5 -17 6 -20 23 -5 23 6 0 10 -5 10 -11z
m-1030 -9 c0 -5 -7 -10 -16 -10 -8 0 -12 5 -9 10 3 6 10 10 16 10 5 0 9 -4 9
-10z m1466 -11 c-6 9 -5 12 3 10 18 -6 14 -24 -6 -24 -9 0 -19 7 -21 15 -5 13
-3 13 13 0 14 -11 17 -12 11 -1z m-66 -23 c0 -6 4 -5 9 3 5 7 14 10 20 7 20
-13 11 -22 -21 -21 -23 1 -34 6 -36 18 -2 12 1 15 12 11 9 -3 16 -11 16 -18z
m-1976 -21 c-21 -16 -34 -19 -34 -7 0 8 42 30 49 25 3 -2 -4 -10 -15 -18z m41
15 c3 -5 1 -10 -4 -10 -6 0 -11 5 -11 10 0 6 2 10 4 10 3 0 8 -4 11 -10z m340
0 c3 -5 1 -10 -4 -10 -6 0 -11 5 -11 10 0 6 2 10 4 10 3 0 8 -4 11 -10z m100
-9 c-3 -6 -11 -11 -17 -11 -6 0 -6 6 2 15 14 17 26 13 15 -4z m632 -5 c0 -8
-6 -12 -15 -9 -11 5 -11 7 0 14 7 5 13 9 14 9 0 0 1 -6 1 -14z m-1337 -32 c0
-3 -7 -12 -15 -20 -12 -13 -15 -13 -15 -1 0 7 3 17 7 20 8 8 23 9 23 1z m790
-20 c0 -3 -7 -12 -15 -20 -16 -17 -18 -14 -9 10 6 15 24 23 24 10z m150 1 c0
-3 -9 -14 -20 -25 -23 -23 -26 -19 -8 10 12 18 28 27 28 15z m6066 -27 l29
-33 -32 29 c-18 17 -33 31 -33 33 0 8 8 1 36 -29z m-10806 -2 c0 -2 -8 -10
-17 -17 -16 -13 -17 -12 -4 4 13 16 21 21 21 13z m3888 -11 c-10 -10 -49 -14
-43 -4 4 5 16 9 27 9 12 0 19 -2 16 -5z m582 -5 c0 -5 -4 -10 -10 -10 -5 0
-10 5 -10 10 0 6 5 10 10 10 6 0 10 -4 10 -10z m-170 -10 c0 -5 -4 -10 -10
-10 -5 0 -10 5 -10 10 0 6 5 10 10 10 6 0 10 -4 10 -10z m293 -20 c-4 -16 -8
-18 -19 -9 -11 9 -18 8 -29 -1 -19 -16 -20 -3 0 16 8 9 19 12 25 9 5 -3 10 -1
10 5 0 6 4 9 9 6 5 -3 7 -15 4 -26z m283 18 c5 -8 2 -9 -9 -5 -10 4 -17 1 -17
-5 0 -6 -3 -9 -6 -5 -7 7 4 27 16 27 5 0 12 -5 16 -12z m138 -28 c-6 -6 -10
-3 -10 10 0 13 4 16 10 10 7 -7 7 -13 0 -20z m-226 2 c2 -7 -3 -12 -12 -12 -9
0 -16 7 -16 16 0 17 22 14 28 -4z m119 -4 c-3 -8 -6 -5 -6 6 -1 11 2 17 5 13
3 -3 4 -12 1 -19z m-4987 -38 c-23 -27 -44 -50 -47 -50 -3 0 14 23 37 50 23
28 44 50 47 50 3 0 -14 -22 -37 -50z m780 30 c0 -5 -4 -10 -10 -10 -5 0 -10 5
-10 10 0 6 5 10 10 10 6 0 10 -4 10 -10z m3216 -6 c-3 -9 -6 -21 -6 -27 0 -7
-4 -6 -10 3 -6 10 -10 11 -10 3 0 -16 -26 -17 -35 -3 -13 21 4 40 36 40 24 0
30 -3 25 -16z m244 -6 c0 -13 -23 -5 -28 10 -2 7 2 10 12 6 9 -3 16 -11 16
-16z m50 0 c0 -13 -23 -5 -28 10 -2 7 2 10 12 6 9 -3 16 -11 16 -16z m248 -8
c7 -12 17 -18 23 -14 7 4 7 -1 0 -15 -7 -11 -17 -21 -23 -21 -7 0 -6 5 2 15 7
8 8 15 4 15 -5 0 -15 9 -22 20 -7 11 -9 20 -4 20 4 0 13 -9 20 -20z m-431 -16
c11 -23 10 -24 -5 -12 -9 7 -20 17 -24 23 -4 5 -10 6 -14 2 -4 -3 4 -15 17
-26 15 -13 19 -20 10 -21 -8 0 -20 8 -27 18 -12 15 -15 15 -23 2 -6 -8 -12
-12 -15 -9 -9 9 33 49 52 49 9 0 22 -12 29 -26z m883 7 c0 -14 -29 -21 -36 -9
-4 7 -3 8 4 4 7 -4 12 -2 12 3 0 6 5 11 10 11 6 0 10 -4 10 -9z m136 0 c8 7
17 9 21 5 4 -3 -2 -13 -13 -21 -23 -17 -38 -19 -28 -3 5 8 2 9 -11 4 -16 -6
-16 -4 -4 10 9 11 15 12 17 5 3 -9 8 -9 18 0z m-1115 -38 c13 -16 12 -17 -3
-4 -10 7 -18 15 -18 17 0 8 8 3 21 -13z m924 7 c3 -5 1 -10 -4 -10 -6 0 -11 5
-11 10 0 6 2 10 4 10 3 0 8 -4 11 -10z m6066 -7 c13 -16 12 -17 -3 -4 -10 7
-18 15 -18 17 0 8 8 3 21 -13z m-7015 -23 c19 0 18 -16 -1 -24 -8 -3 -14 0
-12 7 1 7 -3 11 -9 10 -8 -2 -10 6 -6 20 5 18 7 19 10 5 2 -10 10 -18 18 -18z
m108 -1 c4 6 12 11 19 11 26 0 -30 -26 -58 -27 -16 0 -23 1 -14 4 11 3 15 11
12 26 -5 22 -4 22 15 -2 13 -16 21 -20 26 -12z m1071 -18 c0 -18 -4 -27 -12
-24 -7 3 -10 10 -6 17 4 6 8 14 9 19 5 28 10 22 9 -12z m-5246 -26 c-18 -25
-34 -45 -36 -45 -6 0 6 19 35 58 37 49 38 38 1 -13z m4635 33 c-5 -8 -2 -9 11
-4 14 5 16 4 7 -7 -9 -10 -8 -17 0 -25 19 -19 3 -14 -20 6 -16 14 -18 22 -10
30 15 15 21 15 12 0z m122 -36 c-4 -3 -11 0 -16 8 -15 24 -11 33 6 15 9 -9 13
-19 10 -23z m-186 8 c0 -5 -5 -10 -11 -10 -5 0 -7 5 -4 10 3 6 8 10 11 10 2 0
4 -4 4 -10z m150 -25 c-9 -11 -9 -15 -1 -15 7 0 9 -5 5 -11 -4 -8 -9 -7 -15 2
-4 8 -3 20 4 28 10 12 9 14 -7 8 -16 -6 -17 -5 -6 8 9 11 16 13 23 6 7 -7 6
-15 -3 -26z m67 10 c-15 -16 -19 -13 -11 9 3 9 10 13 15 10 5 -3 3 -11 -4 -19z
m228 15 c3 -5 1 -10 -4 -10 -6 0 -11 5 -11 10 0 6 2 10 4 10 3 0 8 -4 11 -10z
m-2585 -30 c0 -11 -4 -20 -8 -20 -4 0 -8 9 -8 20 0 11 4 20 8 20 4 0 8 -9 8
-20z m2617 5 c0 -8 -4 -12 -9 -9 -5 3 -6 10 -3 15 9 13 12 11 12 -6z m-1497
-20 c-7 -9 -15 -13 -19 -10 -3 3 1 10 9 15 21 14 24 12 10 -5z m116 -19 c6
-19 8 -35 5 -34 -19 2 -22 -4 -11 -17 7 -9 8 -15 2 -15 -5 0 -13 7 -16 16 -3
9 -13 14 -21 11 -9 -4 -12 -1 -9 7 3 8 14 12 25 9 17 -5 18 -3 9 21 -12 33
-12 36 -2 36 4 0 12 -16 18 -34z m-1502 7 c-5 -5 -11 -12 -15 -16 -3 -4 -12
-1 -19 8 -11 13 -9 15 15 15 16 0 24 -3 19 -7z m398 -5 c-8 -8 -7 -15 8 -28
22 -19 11 -46 -15 -36 -14 5 -15 9 -5 21 8 10 9 15 2 15 -6 0 -10 9 -9 20 1
11 8 20 16 20 11 0 12 -3 3 -12z m75 6 c-3 -3 -12 -4 -19 -1 -8 3 -5 6 6 6 11
1 17 -2 13 -5z m93 -9 c-7 -8 -16 -15 -21 -15 -5 0 -6 7 -3 15 4 8 13 15 21
15 13 0 13 -3 3 -15z m760 11 c0 -3 -4 -8 -10 -11 -5 -3 -10 -1 -10 4 0 6 5
11 10 11 6 0 10 -2 10 -4z m-1410 -36 c0 -5 -4 -10 -9 -10 -6 0 -13 5 -16 10
-3 6 1 10 9 10 9 0 16 -4 16 -10z m215 0 c3 -5 1 -10 -4 -10 -6 0 -11 5 -11
10 0 6 2 10 4 10 3 0 8 -4 11 -10z m377 -2 c-5 -7 -10 -34 -9 -60 0 -27 -4
-49 -9 -50 -13 -4 -17 51 -4 67 8 10 8 14 -2 17 -9 3 -9 8 2 21 17 19 37 23
22 5z m120 -13 c4 -19 1 -25 -13 -25 -22 0 -24 15 -6 35 6 8 13 14 13 15 1 0
4 -11 6 -25z m673 7 c-3 -3 -11 0 -18 7 -9 10 -8 11 6 5 10 -3 15 -9 12 -12z
m-228 -17 c-9 -8 -20 -15 -26 -15 -6 0 -11 -4 -11 -10 0 -5 -7 -10 -15 -10 -7
0 -19 -8 -24 -17 -6 -10 -11 -13 -11 -7 0 17 53 71 75 76 27 6 30 2 12 -17z
m-1272 -5 c3 -5 1 -10 -4 -10 -6 0 -11 5 -11 10 0 6 2 10 4 10 3 0 8 -4 11
-10z m1589 1 c3 -5 0 -11 -8 -14 -8 -3 -17 1 -20 9 -6 15 19 20 28 5z m-1431
-21 c-4 -4 -18 -11 -31 -15 -22 -7 -23 -6 -6 13 9 11 23 18 31 15 8 -3 11 -9
6 -13z m771 -19 c-3 -3 -8 -1 -12 4 -9 13 -52 17 -52 5 0 -6 -4 -10 -10 -10
-5 0 -10 6 -10 14 0 20 61 26 77 7 7 -8 10 -17 7 -20z m60 -8 c0 -17 -7 -29
-17 -31 -25 -5 -31 24 -10 46 23 24 29 21 27 -15z m496 22 c0 -2 -9 -3 -19 -2
-11 0 -18 5 -15 9 4 6 34 0 34 -7z m154 7 c2 -4 -4 -8 -14 -8 -10 0 -16 4 -14
8 3 4 9 8 14 8 5 0 11 -4 14 -8z m-1727 -34 c-3 -8 -6 -5 -6 6 -1 11 2 17 5
13 3 -3 4 -12 1 -19z m313 12 c0 -5 -2 -10 -4 -10 -3 0 -8 5 -11 10 -3 6 -1
10 4 10 6 0 11 -4 11 -10z m530 -5 c0 -8 -4 -15 -10 -15 -5 0 -7 7 -4 15 4 8
8 15 10 15 2 0 4 -7 4 -15z m345 5 c3 -5 1 -10 -4 -10 -6 0 -11 5 -11 10 0 6
2 10 4 10 3 0 8 -4 11 -10z m-1393 -22 c-5 -7 -12 -22 -15 -33 -4 -16 -5 -15
-6 6 -1 27 6 39 22 39 6 0 5 -5 -1 -12z m428 -3 c0 -8 -4 -15 -10 -15 -5 0 -7
7 -4 15 4 8 8 15 10 15 2 0 4 -7 4 -15z m490 -10 c0 -16 -5 -23 -13 -19 -7 2
-21 -3 -32 -12 -11 -8 -14 -12 -6 -8 11 5 13 3 8 -10 -4 -10 -7 -21 -7 -26 0
-13 -49 -8 -54 6 -4 11 1 13 19 8 15 -4 25 -2 25 5 0 6 -4 11 -9 11 -5 0 -7 9
-4 20 3 11 14 20 24 20 11 0 22 7 25 15 9 24 24 18 24 -10z m200 4 c0 -5 -7
-9 -15 -9 -15 0 -20 12 -9 23 8 8 24 -1 24 -14z m123 -7 c9 -8 17 -26 17 -40
0 -16 4 -22 14 -19 10 4 12 0 8 -15 -3 -13 -7 -16 -12 -8 -4 7 -12 10 -18 6
-6 -4 -8 2 -4 16 3 14 2 19 -6 14 -7 -4 -15 0 -18 8 -3 9 -13 16 -21 16 -10 0
-14 7 -10 20 3 10 0 21 -7 24 -6 3 0 3 14 0 14 -4 33 -13 43 -22z m106 7 c-16
-10 -23 -4 -14 10 3 6 11 8 17 5 6 -4 5 -9 -3 -15z m505 13 c2 -4 -4 -8 -14
-8 -10 0 -16 4 -14 8 3 4 9 8 14 8 5 0 11 -4 14 -8z m53 -7 c0 -8 -4 -12 -9
-9 -5 3 -6 10 -3 15 9 13 12 11 12 -6z m88 5 c-3 -5 -11 -10 -16 -10 -6 0 -7
5 -4 10 3 6 11 10 16 10 6 0 7 -4 4 -10z m-1660 -10 c3 -5 1 -10 -4 -10 -6 0
-11 5 -11 10 0 6 2 10 4 10 3 0 8 -4 11 -10z m985 0 c0 -5 -2 -10 -4 -10 -3 0
-8 5 -11 10 -3 6 -1 10 4 10 6 0 11 -4 11 -10z m-853 -16 c-3 -3 -12 -4 -19
-1 -8 3 -5 6 6 6 11 1 17 -2 13 -5z m903 -15 c0 -5 -3 -8 -7 -8 -23 4 -35 -3
-30 -16 4 -8 2 -17 -3 -20 -4 -3 -7 6 -5 21 2 18 -1 24 -12 20 -8 -4 -11 -1
-8 5 4 6 13 8 21 5 7 -3 16 -1 19 5 7 11 25 3 25 -12z m61 -2 c-10 -9 -11 -8
-5 6 3 10 9 15 12 12 3 -3 0 -11 -7 -18z m-1301 3 c0 -5 -5 -10 -11 -10 -5 0
-7 5 -4 10 3 6 8 10 11 10 2 0 4 -4 4 -10z m97 -6 c-3 -3 -12 -4 -19 -1 -8 3
-5 6 6 6 11 1 17 -2 13 -5z m729 -26 c3 -16 3 -32 0 -35 -3 -4 -6 3 -6 15 0
18 -6 22 -30 22 -18 0 -30 5 -30 13 0 8 12 14 30 14 24 0 30 -5 36 -29z
m-2786 15 c0 -5 -10 -19 -21 -33 l-21 -25 18 33 c18 32 24 38 24 25z m2195
-22 c-3 -6 -16 -16 -28 -23 -20 -10 -20 -9 3 15 24 25 39 29 25 8z m633 -8 c2
-20 -1 -24 -9 -16 -7 7 -9 19 -6 27 9 23 12 20 15 -11z m-948 2 c7 -8 8 -15 2
-15 -5 0 -15 7 -22 15 -7 8 -8 15 -2 15 5 0 15 -7 22 -15z m739 12 c-2 -1 -13
-9 -24 -17 -19 -14 -19 -14 -6 3 7 9 18 17 24 17 6 0 8 -1 6 -3z m271 -8 c0
-8 5 -8 15 1 20 17 21 -6 1 -26 -22 -21 -36 -17 -36 11 0 14 5 25 10 25 6 0
10 -5 10 -11z m-1150 -9 c0 -5 -5 -10 -11 -10 -5 0 -7 5 -4 10 3 6 8 10 11 10
2 0 4 -4 4 -10z m2200 6 c0 -2 -7 -7 -16 -10 -8 -3 -12 -2 -9 4 6 10 25 14 25
6z m-800 -42 c0 -9 -5 -12 -12 -8 -8 5 -9 1 -4 -12 6 -15 5 -16 -5 -7 -10 10
-9 15 1 28 16 19 20 19 20 -1z m25 6 c3 -5 1 -10 -4 -10 -6 0 -11 5 -11 10 0
6 2 10 4 10 3 0 8 -4 11 -10z m-305 -4 c0 -3 -4 -8 -10 -11 -5 -3 -10 -1 -10
4 0 6 5 11 10 11 6 0 10 -2 10 -4z m-842 -35 c3 -10 -3 -11 -27 -6 -24 5 -31
3 -31 -9 0 -9 -4 -16 -10 -16 -14 0 -13 18 3 35 15 18 59 15 65 -4z m416 4
c-4 -8 -8 -15 -10 -15 -2 0 -4 7 -4 15 0 8 4 15 10 15 5 0 7 -7 4 -15z m168
-7 c-7 -7 -12 -8 -12 -2 0 14 12 26 19 19 2 -3 -1 -11 -7 -17z m86 4 c5 -17
-35 -15 -41 1 -3 9 2 13 16 12 11 -1 23 -7 25 -13z m92 10 c0 -5 -7 -9 -15 -9
-8 0 -15 4 -15 9 0 4 7 8 15 8 8 0 15 -4 15 -8z m-1128 -34 c-7 -7 -12 -8 -12
-2 0 14 12 26 19 19 2 -3 -1 -11 -7 -17z m1243 -8 c-5 -8 -11 -8 -17 -2 -6 6
-7 16 -3 22 5 8 11 8 17 2 6 -6 7 -16 3 -22z m-1059 0 c33 0 47 -14 22 -23
-22 -7 -68 14 -67 31 0 11 2 12 6 5 2 -7 20 -13 39 -13z m145 -7 c-8 -15 -10
-15 -11 -2 0 17 10 32 18 25 2 -3 -1 -13 -7 -23z m829 23 c0 -2 -7 -9 -15 -16
-12 -10 -15 -10 -15 4 0 9 7 16 15 16 8 0 15 -2 15 -4z m-1213 -38 c-3 -8 -6
-5 -6 6 -1 11 2 17 5 13 3 -3 4 -12 1 -19z m527 6 c4 -12 2 -15 -9 -10 -20 7
-66 -14 -58 -27 4 -6 1 -7 -6 -2 -10 5 -7 13 10 31 28 27 54 30 63 8z m81 -13
c-3 -12 -13 -21 -21 -21 -15 0 -12 12 11 36 14 16 18 10 10 -15z m-195 -12 c0
-6 -4 -7 -10 -4 -5 3 -10 11 -10 16 0 6 5 7 10 4 6 -3 10 -11 10 -16z m750 -1
c0 -6 -6 -5 -15 2 -8 7 -15 14 -15 16 0 2 7 1 15 -2 8 -4 15 -11 15 -16z m40
7 c0 -2 -6 -5 -13 -8 -8 -3 -14 1 -14 8 0 7 6 11 14 8 7 -3 13 -6 13 -8z
m-894 -26 c-2 -17 -8 -34 -12 -37 -4 -4 -5 0 -2 8 3 8 1 25 -3 38 -7 17 -5 22
7 22 11 0 14 -8 10 -31z m-223 4 c-7 -2 -13 -11 -13 -19 0 -15 -12 -19 -23 -7
-8 7 23 33 38 32 6 0 4 -3 -2 -6z m275 -15 c-2 -6 -10 -13 -16 -14 -7 -1 -8 0
-2 3 5 2 8 9 4 14 -3 5 0 9 6 9 7 0 10 -5 8 -12z m569 6 c-3 -4 1 -13 9 -21
15 -15 10 -38 -7 -27 -5 3 -7 9 -4 14 3 5 1 11 -5 15 -14 8 -13 25 2 25 6 0 9
-3 5 -6z m-469 -29 c2 -22 -2 -25 -33 -25 -28 0 -35 4 -35 19 0 14 8 21 28 24
15 2 29 5 32 6 3 0 7 -10 8 -24z m749 19 c-3 -3 -12 -4 -19 -1 -8 3 -5 6 6 6
11 1 17 -2 13 -5z m28 -4 c3 -5 1 -10 -4 -10 -6 0 -11 5 -11 10 0 6 2 10 4 10
3 0 8 -4 11 -10z m-675 -16 c0 -9 8 -23 18 -31 9 -8 11 -12 5 -8 -7 3 -13 1
-13 -4 0 -6 5 -11 12 -11 6 0 8 -3 5 -6 -9 -9 -38 16 -31 27 3 5 -6 9 -20 9
-16 0 -26 6 -26 14 0 8 -8 17 -17 19 -10 3 1 5 25 6 33 1 42 -3 42 -15z m941
-11 c12 -14 12 -16 0 -8 -11 6 -13 4 -8 -8 3 -10 2 -17 -3 -17 -14 0 -21 18
-10 25 6 4 8 11 5 16 -10 15 2 10 16 -8z m-1605 -20 c-7 -7 -26 7 -26 19 0 6
6 6 15 -2 9 -7 13 -15 11 -17z m144 11 c0 -8 -4 -12 -10 -9 -5 3 -10 10 -10
16 0 5 5 9 10 9 6 0 10 -7 10 -16z m80 2 c0 -7 -9 -16 -20 -19 -11 -3 -18 -1
-14 4 3 5 0 9 -5 9 -6 0 -11 5 -11 10 0 6 11 10 25 10 15 0 25 -6 25 -14z m70
-16 c12 -23 12 -24 -3 -11 -10 7 -17 20 -17 29 0 18 3 16 20 -18z m30 21 c0
-17 -18 -21 -24 -6 -3 9 0 15 9 15 8 0 15 -4 15 -9z m395 0 c3 -5 2 -12 -3
-15 -5 -3 -9 1 -9 9 0 17 3 19 12 6z m185 -5 c-10 -13 -40 -12 -40 1 0 3 7 3
15 0 8 -4 17 -2 20 3 4 6 9 10 12 10 3 0 0 -6 -7 -14z m280 -15 c0 -27 -24
-50 -38 -36 -3 3 -1 5 5 5 17 0 25 31 12 46 -9 11 -8 14 5 14 11 0 16 -9 16
-29z m46 14 c-8 -8 -18 -15 -22 -15 -3 0 -1 7 6 15 7 8 17 15 22 15 5 0 3 -7
-6 -15z m171 -2 c6 4 20 -4 32 -17 23 -24 36 -27 59 -13 16 11 15 -1 -2 -19
-20 -19 -22 -18 -56 19 -16 17 -30 26 -30 19 0 -10 -4 -10 -19 0 -11 7 -17 16
-14 21 3 5 9 4 13 -3 4 -7 12 -10 17 -7z m-57 3 c0 -2 -7 -7 -16 -10 -8 -3
-12 -2 -9 4 6 10 25 14 25 6z m-1227 -38 c-1 -20 2 -26 13 -21 10 4 12 0 8
-11 -10 -26 -39 -14 -36 14 1 15 -5 30 -15 38 -16 12 -16 13 7 10 20 -2 25 -8
23 -30z m367 12 c0 -5 -9 -6 -20 -3 -11 3 -17 9 -15 14 7 10 35 1 35 -11z
m670 16 c0 -3 -4 -8 -10 -11 -5 -3 -10 -1 -10 4 0 6 5 11 10 11 6 0 10 -2 10
-4z m-31 -24 c7 -14 5 -21 -10 -30 -11 -7 -17 -17 -14 -22 3 -5 0 -12 -6 -16
-8 -5 -9 -3 -4 6 6 10 4 12 -7 7 -12 -4 -15 0 -13 18 2 26 22 55 36 55 5 0 13
-8 18 -18z m-389 2 c0 -8 -19 -13 -24 -6 -3 5 1 9 9 9 8 0 15 -2 15 -3z m275
-4 c4 -6 15 -8 26 -5 22 7 25 -7 5 -25 -8 -6 -12 -18 -9 -26 3 -8 0 -14 -5
-14 -6 0 -9 9 -7 20 2 11 -1 20 -6 20 -6 0 -7 5 -3 12 5 7 2 9 -8 6 -9 -4 -15
0 -15 8 0 16 13 19 22 4z m369 2 c3 -5 -1 -9 -9 -9 -8 0 -12 4 -9 9 3 4 7 8 9
8 2 0 6 -4 9 -8z m-1166 -45 c8 -9 12 -20 9 -24 -4 -3 -7 -1 -7 5 0 7 -9 12
-20 12 -13 0 -20 7 -20 18 0 23 13 38 19 20 2 -7 10 -21 19 -31z m57 33 c3 -5
-1 -10 -9 -10 -9 0 -16 5 -16 10 0 6 4 10 9 10 6 0 13 -4 16 -10z m99 -4 c-3
-8 -15 -11 -30 -8 -34 6 -30 22 6 22 21 0 28 -4 24 -14z m246 -1 c0 -2 -9 -3
-19 -2 -11 0 -18 5 -15 9 4 6 34 0 34 -7z m815 6 c3 -5 0 -13 -5 -16 -8 -5 -5
-14 7 -28 15 -18 15 -20 1 -8 -9 7 -23 9 -29 5 -9 -5 -10 -2 -6 9 3 10 2 17
-4 17 -5 0 -12 -7 -15 -15 -4 -8 -10 -12 -15 -9 -5 3 3 16 19 29 30 27 38 30
47 16z m270 -11 c-3 -5 -12 -10 -18 -10 -7 0 -6 4 3 10 19 12 23 12 15 0z
m-50 -9 c3 -6 -3 -9 -14 -8 -11 0 -17 5 -15 9 7 11 22 10 29 -1z m-1390 -11
c-3 -5 -11 -10 -16 -10 -6 0 -7 5 -4 10 3 6 11 10 16 10 6 0 7 -4 4 -10z m715
0 c0 -5 -4 -10 -10 -10 -5 0 -10 5 -10 10 0 6 5 10 10 10 6 0 10 -4 10 -10z
m-690 -15 c-7 -9 -15 -13 -19 -10 -3 3 1 10 9 15 21 14 24 12 10 -5z m1277 -2
c0 -9 -4 -10 -14 -2 -7 6 -13 12 -13 14 0 1 6 2 13 2 8 0 14 -6 14 -14z
m-1389 -18 c24 -27 13 -35 -12 -9 -14 14 -22 34 -13 34 2 0 13 -11 25 -25z
m559 -11 c-9 -9 -28 6 -21 18 4 6 10 6 17 -1 6 -6 8 -13 4 -17z m454 13 c-6
-8 -8 -17 -4 -21 4 -4 0 -4 -10 0 -17 6 -17 7 0 20 23 17 28 18 14 1z m315
-46 c-12 -11 -18 -12 -29 -3 -8 7 -16 9 -19 6 -3 -3 -8 -1 -11 3 -3 5 6 10 19
11 18 1 23 -2 18 -11 -5 -9 -3 -9 7 1 12 11 12 14 0 21 -8 5 -21 6 -30 3 -13
-5 -13 -4 -1 9 12 14 16 13 37 -5 21 -17 22 -22 9 -35z m-656 28 c0 -6 -4 -7
-10 -4 -5 3 -10 11 -10 16 0 6 5 7 10 4 6 -3 10 -11 10 -16z m255 1 c-4 -7 3
-9 19 -6 29 5 32 1 12 -19 -11 -12 -17 -10 -36 11 -20 21 -21 24 -6 24 9 0 14
-5 11 -10z m282 -3 c0 -16 -34 -20 -43 -5 -4 6 -3 8 2 5 6 -3 16 -2 24 4 8 5
15 9 16 9 0 0 1 -6 1 -13z m-1405 -12 c0 -5 -5 -11 -11 -13 -6 -2 -11 4 -11
13 0 9 5 15 11 13 6 -2 11 -8 11 -13z m348 11 c0 -2 -7 -7 -16 -10 -8 -3 -12
-2 -9 4 6 10 25 14 25 6z m282 -28 c-8 -8 -9 -4 -5 13 4 13 8 18 11 10 2 -7
-1 -18 -6 -23z m388 20 c0 -11 -12 -10 -30 2 -12 7 -10 9 8 7 12 0 22 -5 22
-9z m30 2 c0 -5 -5 -10 -11 -10 -5 0 -7 5 -4 10 3 6 8 10 11 10 2 0 4 -4 4
-10z m-918 -13 c-12 -7 -19 -16 -16 -20 4 -4 2 -7 -4 -7 -7 0 -12 9 -12 20 0
15 7 20 28 20 l27 -1 -23 -12z m95 -19 c-3 -8 -6 -5 -6 6 -1 11 2 17 5 13 3
-3 4 -12 1 -19z m1227 6 c3 -8 2 -12 -4 -9 -6 3 -10 10 -10 16 0 14 7 11 14
-7z m213 0 c0 -20 -23 -24 -24 -5 -1 10 4 18 11 18 7 0 13 -6 13 -13z m-2177
-30 c0 -5 -5 -3 -11 3 -6 6 -19 9 -27 5 -14 -5 -15 -4 -2 10 12 12 17 13 27 2
7 -7 13 -16 13 -20z m540 22 c0 -8 -7 -16 -15 -20 -12 -4 -13 -2 -2 14 14 24
17 25 17 6z m1370 10 c0 -3 -4 -8 -10 -11 -5 -3 -10 -1 -10 4 0 6 5 11 10 11
6 0 10 -2 10 -4z m30 -16 c0 -5 -4 -10 -10 -10 -5 0 -10 5 -10 10 0 6 5 10 10
10 6 0 10 -4 10 -10z m-1863 -22 c-3 -8 -6 -5 -6 6 -1 11 2 17 5 13 3 -3 4
-12 1 -19z m569 -14 c-9 -8 -16 -19 -16 -24 0 -4 -7 -10 -14 -13 -10 -4 -13
-1 -9 9 3 7 9 14 14 14 5 0 9 6 9 13 0 18 24 41 28 27 2 -5 -4 -17 -12 -26z
m451 14 c2 -17 0 -19 -7 -8 -5 8 -6 18 -4 22 8 12 10 10 11 -14z m201 -3 c-3
-3 -9 2 -12 12 -6 14 -5 15 5 6 7 -7 10 -15 7 -18z m689 10 c0 -8 -4 -12 -9
-9 -5 3 -6 10 -3 15 9 13 12 11 12 -6z m-1294 -21 c-4 -12 -8 -13 -14 -3 -9
15 -2 32 11 24 5 -3 6 -13 3 -21z m963 -11 c-2 -2 -15 3 -30 11 -16 8 -22 16
-15 18 12 4 52 -22 45 -29z m-496 2 c0 -8 -3 -16 -7 -18 -5 -3 -8 5 -8 18 0
13 3 21 8 18 4 -2 7 -10 7 -18z m1188 11 c-7 -8 -15 -12 -17 -11 -5 6 10 25
20 25 5 0 4 -6 -3 -14z m-1814 -38 c-10 -13 -20 -25 -22 -27 -2 -4 4 35 7 47
1 1 8 2 18 2 14 0 14 -3 -3 -22z m39 9 c3 -8 -1 -14 -8 -14 -7 0 -11 6 -8 14
3 7 6 13 8 13 2 0 5 -6 8 -13z m1747 3 c0 -5 -5 -10 -11 -10 -5 0 -7 5 -4 10
3 6 8 10 11 10 2 0 4 -4 4 -10z m-1166 -46 c4 -11 1 -12 -13 -5 -10 6 -20 8
-23 6 -3 -3 -5 1 -5 9 0 17 34 9 41 -10z m-1184 2 c0 -3 -4 -8 -10 -11 -5 -3
-10 -1 -10 4 0 6 5 11 10 11 6 0 10 -2 10 -4z m1120 -42 c0 -8 -19 -13 -24 -6
-3 5 1 9 9 9 8 0 15 -2 15 -3z m-673 -26 c-3 -8 -6 -5 -6 6 -1 11 2 17 5 13 3
-3 4 -12 1 -19z m4443 12 c252 -31 486 -122 670 -262 55 -41 70 -48 49 -20
-13 15 -12 16 3 3 10 -7 16 -17 13 -21 -5 -9 120 -122 127 -115 3 3 13 -5 24
-17 10 -12 13 -18 7 -14 -24 13 -13 -5 31 -57 93 -110 165 -235 356 -622 195
-394 542 -1110 747 -1540 58 -121 149 -312 203 -425 266 -557 318 -667 324
-688 l7 -22 -153 0 c-87 0 -180 -6 -216 -14 l-62 -13 -49 91 c-181 336 -527
1025 -810 1611 -413 854 -553 1131 -570 1127 -7 -1 -10 2 -6 8 8 13 -14 52
-25 45 -6 -4 -7 1 -3 11 4 11 3 15 -5 10 -6 -3 -14 -1 -18 5 -4 8 -3 9 4 5 24
-15 10 11 -41 74 -29 36 -58 65 -64 65 -6 0 -15 4 -20 9 -5 5 -3 6 5 2 30 -18
7 14 -40 55 -116 99 -256 174 -393 210 -114 30 -294 36 -410 14 -255 -48 -465
-191 -618 -421 -44 -67 -342 -653 -915 -1799 -468 -935 -864 -1731 -882 -1770
-72 -156 -109 -404 -90 -601 25 -264 127 -492 294 -658 347 -343 1027 -431
1682 -217 126 41 354 143 354 158 0 5 -39 43 -86 84 -150 129 -331 343 -469
554 -258 394 -462 896 -619 1522 -48 189 -49 274 -6 361 27 52 59 86 230 242
110 100 199 187 197 193 -1 7 4 11 12 9 18 -4 82 58 74 71 -3 6 -1 7 5 3 6 -3
172 138 378 324 399 357 442 389 567 410 107 19 203 -3 304 -69 32 -21 114
-90 183 -152 230 -209 622 -562 790 -712 326 -293 345 -319 345 -462 -1 -165
-170 -747 -321 -1106 -196 -467 -422 -820 -727 -1136 l-118 -122 96 -46 c337
-160 632 -225 1027 -225 l173 0 55 -46 c110 -91 336 -209 443 -231 58 -12 25
-27 -163 -77 -202 -53 -387 -76 -611 -76 -459 0 -874 111 -1269 340 -69 40
-129 72 -135 73 -5 0 -53 -26 -105 -58 -276 -170 -597 -289 -936 -347 -172
-29 -570 -33 -734 -6 -291 48 -561 152 -763 295 -111 79 -280 250 -348 353
-235 355 -312 773 -223 1209 38 186 32 173 839 1796 246 495 448 910 448 922
1 11 6 19 11 15 5 -3 6 2 3 12 -4 10 -3 15 3 11 11 -7 93 163 84 176 -3 5 0
17 6 26 9 15 10 14 5 -7 -3 -14 21 27 54 90 37 71 58 123 55 135 -4 13 -2 16
3 8 12 -17 267 496 258 518 -3 10 -2 20 4 24 7 4 9 -1 5 -12 -9 -27 32 39 66
107 17 34 28 66 24 72 -4 7 -3 8 4 4 13 -8 46 50 37 65 -4 5 -1 8 7 7 7 -2 12
5 12 14 -1 10 3 16 10 15 6 -1 10 6 9 16 0 10 2 16 5 13 7 -7 32 13 32 26 0 5
-6 6 -12 2 -7 -4 -10 -4 -6 0 3 4 8 6 11 4 6 -5 37 23 37 34 0 6 -7 5 -15 -2
-24 -20 -18 -5 7 16 13 12 18 13 13 4 -5 -9 0 -8 13 4 26 23 30 45 5 25 -10
-8 4 12 31 44 27 31 51 57 53 57 6 0 -9 -21 -46 -65 -22 -26 114 99 174 159
l20 20 -25 -19 c-14 -11 -40 -33 -57 -49 -18 -17 -33 -26 -32 -20 0 5 25 29
54 54 55 46 68 64 38 53 -15 -6 -16 -5 -3 9 20 21 55 2 37 -20 -6 -8 24 9 68
38 44 28 79 56 77 62 -1 5 2 7 7 4 5 -3 47 12 95 34 223 103 489 147 716 120z
m-4649 -37 c-12 -20 -14 -14 -5 12 4 9 9 14 11 11 3 -2 0 -13 -6 -23z m-1500
-90 c-12 -20 -14 -14 -5 12 4 9 9 14 11 11 3 -2 0 -13 -6 -23z m5438 23 c-10
-9 -69 -36 -69 -32 0 7 52 35 64 36 5 0 7 -2 5 -4z m-4319 -20 c0 -7 -6 -19
-14 -25 -11 -9 -13 -6 -13 14 0 15 5 25 13 25 8 0 14 -6 14 -14z m-80 -28 c0
-6 -6 -5 -15 2 -8 7 -15 14 -15 16 0 2 7 1 15 -2 8 -4 15 -11 15 -16z m-51 1
c-18 -11 -39 -11 -39 0 0 5 12 9 26 9 18 0 22 -3 13 -9z m-159 -19 c0 -5 -4
-10 -10 -10 -5 0 -10 5 -10 10 0 6 5 10 10 10 6 0 10 -4 10 -10z m4490 6 c0
-4 -95 -66 -112 -74 -5 -2 -8 1 -8 7 0 6 7 11 15 11 8 0 15 5 15 10 0 6 6 10
13 10 6 0 23 9 37 20 24 19 40 25 40 16z m-4292 -36 c-7 -10 -14 -17 -17 -15
-4 4 18 35 25 35 2 0 -1 -9 -8 -20z m-13 -38 c-3 -3 -1 -10 4 -16 6 -7 1 -11
-17 -12 -15 -1 -22 1 -15 3 7 2 10 10 7 17 -3 7 2 13 11 13 8 0 13 -3 10 -5z
m-1048 -34 c-3 -8 -6 -5 -6 6 -1 11 2 17 5 13 3 -3 4 -12 1 -19z m1010 -14
c-3 -3 -12 -4 -19 -1 -8 3 -5 6 6 6 11 1 17 -2 13 -5z m-1046 -97 c-10 -9 -11
-8 -5 6 3 10 9 15 12 12 3 -3 0 -11 -7 -18z m-84 -389 c-3 -8 -6 -5 -6 6 -1
11 2 17 5 13 3 -3 4 -12 1 -19z m4856 -93 c-3 -9 -8 -14 -10 -11 -3 3 -2 9 2
15 9 16 15 13 8 -4z m-80 -160 c-3 -9 -8 -14 -10 -11 -3 3 -2 9 2 15 9 16 15
13 8 -4z m-4816 -77 c-2 -13 -4 -5 -4 17 -1 22 1 32 4 23 2 -10 2 -28 0 -40z
m4696 -163 c-9 -19 -18 -33 -21 -31 -4 5 26 66 33 66 3 0 -3 -16 -12 -35z
m-72 -148 c-10 -9 -11 -8 -5 6 3 10 9 15 12 12 3 -3 0 -11 -7 -18z m4390
-2573 c116 -28 282 -103 376 -170 289 -206 473 -532 490 -869 20 -394 -169
-776 -492 -995 -331 -224 -725 -261 -1090 -102 -240 104 -439 298 -560 546
-177 361 -147 778 80 1121 48 71 177 208 247 263 163 125 359 206 563 232 104
13 273 2 386 -26z m-6223 -3115 c64 -22 83 -105 36 -153 -58 -58 -164 -20
-164 59 0 36 31 82 64 95 28 12 28 12 64 -1z m742 -159 l0 -161 38 30 c97 77
251 62 348 -36 59 -59 88 -133 89 -228 0 -71 -4 -88 -33 -147 -54 -110 -135
-160 -258 -160 -74 0 -118 15 -161 55 l-23 20 0 -31 c0 -35 -12 -39 -96 -34
l-52 4 -6 41 c-8 52 -7 682 1 755 l5 52 74 0 74 0 0 -160z m1366 149 c3 -6 6
-78 6 -161 l0 -149 22 19 c45 41 88 56 166 56 89 0 132 -19 197 -86 63 -65 87
-126 87 -223 0 -65 -4 -90 -25 -136 -53 -113 -142 -172 -264 -173 -73 0 -117
15 -162 57 l-23 20 0 -31 0 -32 -75 0 -75 0 0 418 c0 230 3 422 7 425 11 12
131 8 139 -4z m-2559 -258 c23 -11 48 -28 57 -36 15 -15 16 -13 16 19 l0 36
75 0 75 0 1 -37 c1 -21 2 -49 1 -63 0 -14 0 -132 -1 -262 l-1 -238 -75 0 -75
0 0 31 0 31 -29 -24 c-15 -13 -27 -25 -25 -27 2 -2 13 4 24 14 19 18 20 17 20
-1 0 -15 -8 -20 -37 -21 -21 -1 -60 -7 -88 -13 -135 -30 -285 57 -328 190 -19
58 -22 156 -7 210 47 169 249 267 397 191z m2192 -2 c45 -25 86 -78 101 -130
6 -19 10 -127 10 -241 l0 -208 -74 0 -73 0 -6 83 c-4 45 -7 135 -7 200 0 118
0 119 -29 148 -50 49 -139 38 -185 -24 -19 -26 -21 -46 -26 -215 l-5 -187 -78
-3 -77 -3 2 298 3 298 72 3 c70 3 73 2 79 -22 3 -14 3 -30 -1 -35 -3 -6 -1
-11 4 -11 6 0 11 3 11 8 0 11 63 52 96 62 47 15 138 5 183 -21z m1824 20 c21
-6 55 -27 75 -47 l36 -37 33 32 c43 41 128 68 188 59 65 -10 128 -55 156 -112
23 -47 24 -57 24 -269 l0 -220 -70 0 -70 0 -5 200 c-6 223 -12 247 -70 260
-72 16 -131 -18 -150 -86 -6 -19 -10 -112 -10 -206 l0 -173 -70 0 -70 0 0 190
c0 203 -8 248 -48 269 -34 18 -97 13 -126 -10 -51 -40 -56 -63 -56 -264 l0
-185 -70 0 -70 0 0 300 0 301 68 -3 c67 -3 67 -3 70 -34 l3 -31 31 28 c48 46
124 60 201 38z m975 -13 c15 -8 36 -24 47 -36 l20 -22 5 33 5 34 68 3 67 3 0
-301 0 -301 -67 3 c-66 3 -68 4 -71 31 -2 15 -8 25 -13 21 -5 -3 -6 -11 -3
-17 4 -7 4 -9 0 -5 -5 4 -27 -3 -49 -15 -59 -31 -184 -31 -242 0 -51 27 -97
75 -127 133 -27 53 -37 180 -18 244 27 95 115 184 203 207 43 11 141 3 175
-15z m697 13 c55 -14 118 -67 138 -116 14 -38 24 -229 19 -405 l-2 -78 -70 0
-70 0 0 185 c0 203 -7 240 -54 271 -33 21 -107 15 -145 -13 -42 -32 -50 -72
-50 -266 l-1 -178 -67 3 -68 3 0 295 0 295 65 0 65 0 3 -33 3 -33 35 30 c19
17 47 33 62 37 15 3 32 7 37 9 21 7 57 5 100 -6z m575 0 c31 -7 65 -23 85 -40
l34 -30 3 33 3 33 68 3 67 3 0 -301 0 -300 -70 0 -70 0 0 30 0 29 -35 -24
c-54 -36 -101 -48 -169 -43 -108 9 -183 64 -232 172 -77 169 5 372 175 432 45
16 76 17 141 3z m740 -27 l49 -30 9 26 c8 24 15 27 65 30 30 2 58 -1 61 -7 4
-5 7 -149 7 -318 1 -290 -1 -311 -21 -365 -38 -103 -132 -161 -260 -162 -100
-1 -160 18 -216 67 -42 37 -82 102 -71 114 3 2 31 10 63 18 l59 14 27 -33 c37
-45 76 -59 148 -54 89 6 131 55 134 154 l2 52 -31 -24 c-140 -106 -353 -35
-411 138 -24 74 -16 197 19 264 71 140 242 193 367 116z m677 13 c53 -22 118
-89 143 -147 13 -30 21 -74 23 -116 l2 -67 -217 -3 c-120 -1 -218 -5 -218 -8
0 -18 32 -73 54 -93 19 -18 41 -26 80 -29 73 -6 97 1 134 40 l32 31 55 -12
c30 -7 57 -16 60 -21 3 -4 -10 -30 -28 -56 -86 -125 -290 -150 -418 -51 -23
17 -56 56 -72 86 -26 47 -32 68 -35 142 -4 78 -2 92 23 148 41 89 106 146 200
172 41 11 137 3 182 -16z m-7184 -2 c4 -17 3 -336 -1 -505 l-2 -78 -75 0 -75
0 0 293 c0 162 3 297 7 300 3 4 37 7 74 7 56 0 68 -3 72 -17z m268 -28 c3 -22
7 -34 8 -27 0 7 22 26 48 42 35 23 59 30 95 30 l48 0 0 -75 0 -75 -43 0 c-54
0 -107 -28 -132 -71 -17 -30 -20 -56 -23 -206 l-4 -173 -74 0 -74 0 0 293 c0
162 3 297 7 301 4 4 37 6 73 4 l65 -3 6 -40z m7277 39 c18 -5 22 -14 22 -43 1
-31 2 -34 13 -20 28 37 90 69 133 69 l44 0 0 -69 0 -68 -46 -7 c-61 -8 -100
-32 -121 -76 -14 -28 -18 -69 -21 -208 l-4 -173 -66 3 -67 3 -3 285 c-1 157 0
290 3 297 5 14 72 17 113 7z m-4615 -204 l78 0 -3 -67 -3 -68 -173 -3 -173 -2
3 67 3 68 45 7 c25 3 68 4 95 2 28 -2 85 -4 128 -4z"/>
<path d="M3137 10706 c-18 -19 -22 -36 -8 -36 13 0 33 28 29 41 -3 8 -9 6 -21
-5z"/>
<path d="M3450 10689 c0 -5 5 -7 10 -4 6 3 10 8 10 11 0 2 -4 4 -10 4 -5 0
-10 -5 -10 -11z"/>
<path d="M6119 7818 c-57 -51 -219 -196 -359 -323 -139 -126 -330 -299 -424
-383 -94 -85 -177 -160 -184 -166 -15 -15 8 -134 64 -331 149 -518 323 -892
571 -1223 105 -141 275 -315 397 -405 l89 -67 38 30 c20 17 75 72 122 123 315
345 551 754 719 1247 62 184 158 545 158 597 0 14 -67 81 -197 200 -639 581
-868 786 -881 791 -4 1 -55 -39 -113 -90z m34 -973 c-2 -87 -3 -163 -3 -167 0
-4 -74 -8 -165 -8 l-165 0 0 170 0 170 168 -2 167 -3 -2 -160z m482 -5 l0
-165 -165 0 -165 0 -3 155 c-1 85 0 160 3 167 3 11 40 13 167 11 l163 -3 0
-165z m-697 -187 c-15 -2 -42 -2 -60 0 -18 2 -6 4 27 4 33 0 48 -2 33 -4z
m570 0 c-10 -2 -26 -2 -35 0 -10 3 -2 5 17 5 19 0 27 -2 18 -5z m-355 -282 c3
-83 3 -159 0 -170 -5 -20 -12 -21 -169 -21 l-164 0 0 170 0 170 163 0 164 0 6
-149z m485 -18 l-3 -168 -165 0 -165 0 -3 155 c-1 85 0 160 2 167 4 10 45 13
171 13 l165 0 -2 -167z"/>
<path d="M9064 5932 c-32 -21 -34 -51 -34 -587 l0 -536 25 -24 c23 -24 30 -25
140 -25 102 0 117 2 135 20 20 20 20 33 20 573 0 524 -1 555 -18 570 -15 14
-41 17 -138 17 -65 0 -124 -4 -130 -8z"/>
<path d="M8645 5533 c-67 -10 -65 1 -65 -380 l0 -344 25 -24 c23 -24 31 -25
133 -25 93 0 113 3 133 19 l24 19 3 324 c2 177 0 338 -3 355 -3 18 -14 37 -23
42 -20 10 -184 20 -227 14z"/>
<path d="M8150 5210 c-19 -19 -20 -33 -20 -215 0 -248 -8 -237 157 -234 166 4
157 -9 161 228 l3 191 -25 25 c-24 24 -31 25 -141 25 -102 0 -117 -2 -135 -20z"/>
<path d="M3640 2902 c-70 -37 -101 -154 -62 -232 27 -54 74 -80 143 -80 54 0
63 3 99 36 62 57 76 151 33 225 -37 63 -142 88 -213 51z"/>
<path d="M5010 2901 c-51 -27 -75 -74 -75 -146 1 -107 54 -165 150 -165 133 0
201 124 140 253 -33 70 -139 99 -215 58z"/>
<path d="M2190 2897 c-97 -65 -97 -219 0 -284 41 -28 119 -31 170 -5 103 51
104 239 1 291 -55 29 -128 28 -171 -2z"/>
<path d="M7189 2907 c-19 -12 -44 -42 -57 -67 -42 -81 -11 -199 61 -237 45
-23 131 -21 165 4 49 36 66 70 70 136 6 115 -54 187 -159 187 -31 0 -57 -7
-80 -23z"/>
<path d="M8510 2908 c-53 -37 -73 -71 -78 -135 -7 -113 59 -188 166 -187 57 1
89 18 126 67 32 43 34 150 4 201 -44 74 -150 100 -218 54z"/>
<path d="M9204 2920 c-35 -14 -82 -76 -89 -119 -11 -68 3 -122 44 -162 42 -42
92 -55 152 -39 177 48 141 332 -41 329 -25 0 -54 -4 -66 -9z"/>
<path d="M9864 2931 c-29 -13 -74 -69 -74 -92 0 -18 9 -19 144 -19 l145 0 -10
29 c-5 15 -23 41 -39 56 -25 24 -40 29 -87 32 -32 1 -67 -1 -79 -6z"/>
</g>
</svg>
